<?xml version="1.0" encoding="UTF-8"?>
<svg id="Ebene_1" xmlns="http://www.w3.org/2000/svg" version="1.1" viewBox="0 0 190.8 176.64">
  <!-- Generator: Adobe Illustrator 29.7.1, SVG Export Plug-In . SVG Version: 2.1.1 Build 8)  -->
  <defs>
    <style>
      .st0 {
        fill: #f75e03;
      }

      .st1 {
        fill: #fefefd;
      }

      .st2 {
        fill: #cf4006;
      }

      .st3 {
        fill: #020101;
      }

      .st4 {
        fill: #bc3902;
      }

      .st5 {
        fill: #fcfcfc;
      }

      .st6 {
        fill: #070200;
      }

      .st7 {
        fill: #f75d01;
      }
    </style>
  </defs>
  <path class="st1" d="M190.8,0v176.64H0V0h190.8ZM41.71,23.04c-1.16,1.17-2.38.48-3.48.48h-5.03c-.39,0-1.22,1-1.32,1.44-.02.07,0,.16,0,.24-.13,2.39,3.38,5.61,2.78,7.45s-6.05,1.3-7.69,2.62-.41,2.19.36,3.37,3.73,4.08,3.55,5.35c-.27,1.92-6.81,3.17-6.62,5.75.17,2.35,6.68,4.95,6.4,6.25-.14.67-7.88,5.98-8.73,8.81-2.26,7.52,10.87,19.38,17.26,21.61,3,1.05,6.46,1.51,9.47.24-7.24-1.32-14.68-10.7-17.62-17.04-2.24-4.83.89-4.17,4.2-2.64.11,3.04-.45,8.23,4.31,7.44v.24c3.49,5.58,12.24,9.17,18.26,5.69,3.13-1.81-1.19-3.74-1.97-5.69.27,0,2.14-.36,2.4-.48.45.37,1.12.42,1.68.48,6.33,2.02,13.15,2.66,19.78,2.65,4.62,0,7.56-.86,12.34.23.26.06.47.16.72.24,1.03.5,4.3,3.14,2.4,4.21-.59.33-2.78-1.33-4.37-1.04-1.25.22-3.06,2.21-4.02,3.07-.18.16-.32.33-.48.48-3.13,2.28-6.49,2.95-10.31,3,4.58,3.77,10.09,4.56,15.82,3.48,3.62-.68,7.95-2.59,10.07-5.76.18-.27.28-.39.48-.72,2.24-1.76,2.48-5.59,4.35-7.76,1.01-1.17,2.83-2.15,4.04-3.28.08-.08.16-.16.24-.24.75-.23,1.37-.99,1.92-1.44,1.13-.92,6.89-6.15,7.44-6.35.63-.24,1.27-.11,1.91-.13,5.41,1.05,4.38,6.88,5.51,10.8-.34,2.14-.3,4.32-.48,6.48-.04.46-.72,2.76-.13,2.64,1.85-.38,7.12-7.35,8.07-9.2,3.51-6.79,2.19-11.65-3.03-16.73-.58-.57-4.18-3.2-4.2-3.47-.04-.67,7.19-3.76,6.71-6.47-.34-1.89-6.55-3.73-6.72-5.3-.22-1.99,5.67-5.62,4.68-8.02-.77-1.86-7.66-1.63-8.23-3.29-.74-2.14,3.81-6.05,2.57-8.33s-8.62.43-9.44-1.35,2.47-7.51.59-8.99-7.89,2.08-9.33,1.44c-1.35-.6-.78-6.02-1.02-7.39-1-5.62-8.18,2.84-10.18,2.05-1.66-.66-1.56-8.05-3.85-8.42-2.6-.41-5.78,5.79-7.83,5.47S81.73-.14,79.28.28c-1.9.33-3.91,6.89-5.57,6.94-2.05.06-5.67-5.98-8.14-5.54-2.23.4-2.13,7.81-3.98,8.52s-6.02-4.44-8.44-3.92c-2.58.55-.82,8.21-2.58,8.95-2.2.93-7.36-2.83-9.47-1.08-1.68,1.4,1.23,6.5.61,8.89ZM139.26,27.12c-9.44,12.9.03,24.53,8.15,34.08.07.09.17.15.24.24,6.32,7.44,12.75,14.52,14.14,24.72-.04.33.22,1.2-.24,1.2-2.77-8.5-8.99-15.78-15.1-22.08-.34-.35-.67-.43-.72-.48-2.71-3.86-6.6-6.97-8.51-11.52.2,2.68,1.85,5.55,3.48,7.68.94,2.59,4.45,6.83,5.99,9.6,4.02,7.22,5.86,13.17,5.51,21.6,0,.16,0,.32,0,.48-.83,14.51-8.58,23.09-22.05,27.36-1,.32-2.32.44-3.36.72-.26.07-1.19.29-1.2.36-.01.3,2.23,4.43,2.58,5.34.72,1.87,1.34,3.85,1.91,5.77.27.92,1.09,5.58,1.29,5.8.08.09.33,0,.46.02,2.3.42,7.13-.15,9.59-.48,10.38-1.38,20.12-5.99,28.04-12.72,19.37-16.45,18.85-37.84,2.4-56.29-3.84-4.31-17.72-15.67-18.2-20.66-.57-5.84,7.33-4.52,10.81-3.86,7.86,1.48,18.73,7.75,25.84,1.61-4.62.63-9.39-.76-13.43-3-6.52-3.61-3.12-4.48-3.86-10.54-1.79-14.75-24.81-17.19-33.77-4.95ZM137.1,53.04c.17-.26-.11-.66-.23-.48-.17.26.11.66.23.48ZM120.57,112.8c.38.19,4.67-2.95,5.27-3.48,11.44-10.16.14-23.64-9.28-30.08-.64-.44-4.3-2.75-4.73-2.7s-3.66,6.63-4.35,7.67c-1.33,2.01-3.07,4.08-4.89,5.66-.67.58-4.4,2.97-4.32,3.35.07.3,4.6,2.5,5.4,3,6.14,3.87,11.4,8.67,15.75,14.47.31.42,1.04,2.04,1.15,2.09ZM49.38,112.08c6.75-8.19,13.38-14.02,23.25-18.36-3.14-.87-12.13-8.69-14.51-8.78-1.39-.05-5.14,2.85-6.73,3.59-2.98,1.38-5.72,2.08-9.05,1.68-1.13-.13-4.78-1.7-5.04-1.67-.16.02-.68,1.22-.86,1.45-4.18,5.5-7.04,11.76-10.79,17.52-4.28,6.58-11.54,15.12-20.25,15.12H.96v14.64h38.11c.12,0,.41-2.1.48-2.4,1.99-8.12,4.27-13.56,8.15-20.88.37-.46,1.15-1.28,1.68-1.92ZM183.05,139.27c-.72-1.06-6.17-1.08-7.21-.53-1.21.64-1.21,4.87-.6,5.83.75,1.2,6.48,1.1,7.48.4.87-.61.88-4.9.33-5.7ZM116.97,147.84c-.23-.23,0-5.7,0-6.6,0-2.79-8.63-2.45-8.63-.24v6.84c-.19.05-.29-.24-.36-.24h-4.31c-2.03,0-1.66,6.48-.48,6.48h5.15c.95,0-1.62,14.53,1.82,18.7,2.78,3.37,9.9,3.68,13.9,3.15,2.47-.33,2.17-5.38,1.32-6.15-.93-.83-4.89.03-6.6-.59-2.8-1.01-1.73-5.44-1.79-7.54-.08-2.53-.36-5.04-.25-7.57h8.03c1.12,0,1.47-5.24.29-6.17-1.08-.86-7.6.41-8.08-.07ZM133.99,139.68c-1.84.6-1.73,3.15-1.38,4.87.17.82.56.55.66.65.27.27-.22.56,1.08.72,3.97.5,8.18.43,6.35-4.8,0-.15.02-.34,0-.48-.13-.74-.5-.84-1.2-.96-.69-.43-1.83-.26-2.64-.24-.24,0-.48-.01-.72,0-.16,0-.32-.01-.48,0s-.32-.02-.48,0l-1.2.24ZM90.85,168.96c-2.6,2.45-6.6,1.98-9.59.48-.08-.08-.46-.45-.48-.48-.23-.33-.4-.7-.72-.96-.03-.07.03-.17,0-.24-.08-.23-.24-.42-.48-.48-.4-.1-5.77-.07-6.07.04-.86.3-.62,1.65-.48,2.32,2.24,10.08,29.7,9.05,25.84-4.52-1.83-6.44-11.24-5.55-15.89-7.61-5.31-2.36,1.34-6.72,5.98-3.82,1.24.78,1.25,2.23,2.29,2.5.75.19,6.07.16,6.48-.24,1.3-1.29-1.49-5.27-2.7-6.18-5.51-4.17-20.97-3.68-21.9,5.19-.64,6.06,4.42,7.67,9.22,8.96,2.89.77,9.7.59,8.49,5.06ZM146.7,154.56c-2.46,5.68-2.18,13.68,2.4,18.24,4.1,4.08,11.82,4.55,16.94,2.2,1.79-.82,4.77-3.6,5.11-5.56v-.24c.09-.06.21-.14.24-.24.02-.07-.02-.16,0-.24.13-.56.31-1.09.24-1.68-.08-1.36-.32-1.28-1.44-1.44-.23-.03-.48.01-.72,0-1.73-.11-3.51.05-5.24.04l-1.71,3.32c-5.65,2.9-8.94-.36-9.12-6.14-.14-4.66,1.14-10.05,7.02-8.93,2.84.54,2.9,3.94,3.69,4.22.43.16,6.39.1,6.79-.08,2.31-1.05-.97-6.28-2.18-7.41-6.1-5.7-18.48-4.23-22.02,3.93ZM18.46,147.84c-.17.06-.35.09-.48.24v27.36c1.49.67,6.46.84,7.43-.24,1.23-1.36-.16-13.71.89-16.99.82-2.57,2.73-3.06,5.11-3.41.08-.01.16.01.24,0,.52-.07,1.15.06,1.68,0,.29-.03.74.07.96,0,1.45-.44,1.43-6.39-.06-7.02-2.57-1.09-6.65.63-8.09,2.94-.1.08-.17.19-.24.24h-.48c-.11-.17-.16-.29-.24-.48,1.3-3.71-4.71-3.32-6.71-2.64ZM41.71,171.84c1.87,4.19,7.94,4.92,11.98,3.96,1.41-.33,4.64-2.6,4.91-2.52.61.19.08,1.81,1.45,2.39.96.4,6,.42,6.71-.23.32-.3.32-.9.37-1.31.85-7.8-.61-17.2-.06-25.16-.16-2.19-7.07-1.56-7.59-.75-.35.54-.21.99-.26,1.54-.04.39.02.8,0,1.2-.04.95.02,1.92,0,2.88-.01.56,0,1.12,0,1.68,0,.16,0,.32,0,.48,0,.56,0,1.12,0,1.68v7.44c-.96,4.64-5.46,5.31-9.35,3.6-.96-1-1.29-2.38-1.43-3.73-.55-5.27.52-11.27-.16-16.62-.39-.9-7.84-1.84-8.15.81s-.08,18.87.63,21.1c.18.56.44,1.22.97,1.55ZM175.28,175.38c.64.63,7.64,1.24,7.8-.84l.06-25.15c.32-2.75-7.83-1.71-8.11-.91.35,3.12-.71,25.96.25,26.9ZM133.92,147.89c-.8.19-1.36.93-1.38,1.74l.06,24.91c.48,1.97,8.3,2.31,8.34-.42l-.06-25.15c-.27-1.62-5.8-1.36-6.97-1.08Z"/>
  <path class="st7" d="M41.71,23.04c.63-2.39-2.28-7.49-.61-8.89,2.11-1.76,7.27,2,9.47,1.08,1.76-.74,0-8.4,2.58-8.95,2.42-.52,6.54,4.65,8.44,3.92s1.75-8.13,3.98-8.52c2.47-.44,6.09,5.6,8.14,5.54,1.65-.05,3.67-6.62,5.57-6.94,2.45-.42,4.66,6.62,6.67,6.93s5.23-5.88,7.83-5.47c2.29.36,2.19,7.76,3.85,8.42,1.99.79,9.18-7.67,10.18-2.05.24,1.37-.33,6.8,1.02,7.39,1.44.64,7.44-2.92,9.33-1.44s-1.38,7.27-.59,8.99,8.24-.86,9.44,1.35-3.31,6.19-2.57,8.33c.57,1.66,7.46,1.43,8.23,3.29,1,2.4-4.89,6.04-4.68,8.02.17,1.57,6.38,3.41,6.72,5.3.49,2.71-6.75,5.8-6.71,6.47.02.27,3.61,2.9,4.2,3.47,5.22,5.08,6.54,9.93,3.03,16.73-.96,1.85-6.23,8.82-8.07,9.2-.59.12.09-2.17.13-2.64.61-.92.85-2.51.96-3.6,3.24-6.73,4.1-22.48-7.55-14.16l1.56.48c-.64.02-1.28-.11-1.91.13-.55.21-6.31,5.43-7.44,6.35-.55-.64-1.62,1.14-1.92,1.44-.08.08-.16.16-.24.24-1.37.28-3.81,2.25-4.66,3.37-1.56,2.08-2.37,5.4-3.73,7.67-.04.04-1.05.08-.48.72-2.12,3.17-6.45,5.08-10.07,5.76-.67-.97-1.3-.11-1.86-.06-4.83.44-7.38-.37-11.37-2.51-.08-.04-2.33-.08-.79-.54,4.18-1.25,4.83.03,8.51-3.37.16-.15.3-.32.48-.48,1.26-.21,2.55-2.15,3.73-2.38.8-.16,2.45.04,3.27.23.17.04.84,1.46,1.98.23,1.47-1.59-1.25-4-2.69-4.52-.34-.12-.29.21-.3.2-.25-.08-.46-.18-.72-.24.18-.54-1.11-.85-1.38-.9-4.35-.85-9.75.32-14.33.19-5.57-.16-10.91-1.59-16.41-2.17-.56-.06-1.23-.11-1.68-.48.06-.03.15-.17.24-.24,1.19-.38,1.78-2.11,1.91-3.25.39-3.24.42-13.59-.02-16.77-.2-1.42-.79-2.35-2.08-2.97-.28-.14-.95,0-1.01-.06-.25-.25.12-5.87-.06-7.02-.24-1.52-1.54-4.28-3.06-4.98-.08-.07-.15-.17-.24-.24-1.37-1.49-3.99-2.92-5.99-2.16-.24,0-.48-.01-.72,0-2.33-.7-5.69,1.16-6.95,3.12-.08.08-.17.16-.24.24-.81.97-2.16,3.22-2.16,4.44v6.6h-1.2s.24.24.24.24c.02.38-.38.18-.48.24-.06.03.07-.23-.48.24-.07.06-.21.18-.24.24-.16.27,0,.23,0,.24-.1.29-.46,1.05-.48,1.2v12.48c.01.4-.01.8,0,1.2-3.31-1.53-6.44-2.19-4.2,2.64,2.94,6.34,10.38,15.72,17.62,17.04-3.01,1.28-6.47.81-9.47-.24-6.39-2.23-19.52-14.09-17.26-21.61.85-2.83,8.58-8.14,8.73-8.81.28-1.3-6.23-3.9-6.4-6.25-.19-2.58,6.35-3.83,6.62-5.75.18-1.27-2.74-4.11-3.55-5.35.55-.74-.59-1.38-.48-2.27.29-2.35,7.84-.91,8.33-3.67.17-.96-.35-1.76-.62-2.62l-2.68-4.87c0-.08-.02-.17,0-.24l2.52-.95c2-.55,6.67,1.45,7.31-.97ZM65.44,42.24c-.09.06-.16.17-.24.24-3.45,3-3.12,9.32-.32,12.69,6.27,7.52,15.47-4.64,8.47-12.45-.11-.13-.9-.91-.96-.96-2.37-1.78-4.89-1.8-6.95.48ZM89.65,41.76c-.08.07-.16.16-.24.24-.65.12-.81.63-1.19,1.08l.23.12c-.21.27-.57.71-.72.96-2.12,3.58-1.73,8.67,1.44,11.52.17.15,1.49,1.11,1.68,1.2,2.38,1.19,5.48.21,6.71-2.16.08-.08.17-.15.24-.24,2.95-3.74,2.13-9.71-1.46-12.77-.14-.12-.59-.67-.7-.19-.09-.06-.16-.19-.24-.24-2.02-1.25-3.92-1.05-5.75.48ZM100.91,68.88c2.14-.61,6.45-7.61,5.06-9.22-1.2-1.39-2.34,3-2.84,3.87-.28.48-1.13,1-1.26,1.75-.08.08-.16.16-.24.24-5.38,4.95-12.73,5.65-18.94,1.68-.68-.44-2.8-2.41-3-2.41-1.08.01.02,1.86.36,2.41.53.85,1.01,1.3,1.8,1.92l.12-.24c.24.21.61.64.72.72,5.23,3.85,11.1,3.93,16.54.48.37-.23,1.34-.93,1.68-1.2Z"/>
  <path class="st7" d="M139.26,27.12c8.96-12.24,31.98-9.8,33.77,4.95.74,6.05-2.66,6.93,3.86,10.54,4.04,2.24,8.81,3.63,13.43,3-7.11,6.14-17.98-.13-25.84-1.61-3.49-.66-11.38-1.98-10.81,3.86.49,4.99,14.36,16.35,18.2,20.66,16.44,18.45,16.97,39.83-2.4,56.29l-7.98,5.44c-6.64,3.73-12.48,4.97-19.69,6.57-.48.11-.76.23-.37.71-2.46.33-7.29.9-9.59.48l-5.03-17.28c1.03-.28,2.36-.4,3.36-.72.5.39,1.34,0,1.87-.17,10.44-3.47,18.04-11.1,20.17-22.28.23-1.19.59-3.91.02-4.9,0-.16,0-.32,0-.48.73.14.46-.37.48-.83.27-6.8-1.49-14.54-5.14-20.31-.27-.43-.14-.59-.85-.46-1.54-2.77-5.05-7.01-5.99-9.6-.31-.86-.92-2.01.32-1.16.7.48,3.66,3.93,4.72,5,.12.16-.17.68.72.48,6.11,6.3,12.33,13.57,15.1,22.08.45,0,.2-.87.24-1.2.83-7.38-8.2-19.2-13.26-24.28-.28-.28-.19-.62-.88-.44-.07-.09-.17-.15-.24-.24-2.17-3.23-5.22-5.93-7.29-9.38-3.64-6.06-5.22-13.91-2.78-20.75l1.92-3.95ZM161.8,36c.03.08.2.41.24.48,1.69,2.66,5.64,1.67,5.27-1.44,0-.08.02-.16,0-.24.81-.97-1.23-2.97-2.05-3.1-2.83-.44-4.46,1.73-3.46,4.3Z"/>
  <path class="st7" d="M36.43,90c.18-.23.7-1.44.86-1.45.26-.03,3.91,1.53,5.04,1.67,3.33.39,6.07-.3,9.05-1.68,1.59-.74,5.35-3.64,6.73-3.59,2.37.08,11.36,7.91,14.51,8.78-9.87,4.34-16.5,10.17-23.25,18.36-1.07-.18-1.33,1.26-1.68,1.92-.03.03-.33-.09-.44.05-.62.77-1.22,2.45-1.73,3.3-.01.02-.45-.25-.46-.23-.08.14.07.81-.11,1.21-1.91,4.25-4.1,8.44-5.2,13.03-.23.97-.69,2.64-.2,3.52-.07.3-.36,2.4-.48,2.4H.96v-14.64h4.43c8.71,0,15.97-8.54,20.25-15.12l10.79-17.52Z"/>
  <path class="st3" d="M47.22,36.48c.24-.01.48,0,.72,0,2.18.06,4.29.85,5.99,2.16.09.07.16.17.24.24,3.32,2.91,3.2,8.18,2.64,12.24,1.73-.05,2.83.5,3.09,2.3.44,3.08.43,14.61.02,17.74-.12.92-.68,2.22-1.44,2.76-.09.07-.18.21-.24.24-.25.12-2.12.48-2.4.48-.23,0-.5.03-.72,0-2.58-2.06-6.35-2.61-9.59-2.4-.16.01-.32-.02-.48,0-1.21.13-2.38.51-3.52.92-.7.25-1.65,1.19-2,1.24-4.77.79-4.2-4.4-4.31-7.44-.01-.4.01-.8,0-1.2-.1-3.65-.37-8.98,0-12.48.02-.15.38-.91.48-1.2v-.24c.03-.06.17-.18.24-.24l.48-.24c.1-.06.5.14.48-.24.29-.05,1.36.08,1.44,0,.25-.25-.11-5.94.03-7.05.2-1.58,1.01-2.84,1.65-4.23.07-.08.16-.16.24-.24,1.77-1.88,4.37-2.98,6.95-3.12ZM50.58,42c-2.24-2.52-7.67-.17-7.67,3v6.12h9.59c.31,0,.05-5.76,0-6.12-.09-.67-.41-1.23-.72-1.8-.42-.75-.43-.81-1.2-1.2ZM46.93,56.69c-2.05.27-2.66,2.23-2.24,4.05.18.78,1.04,1.48,1.09,2.04.22,2.19-3.94,6.75,3.18,5.33,3.18-.64.22-4.04.41-5.33.09-.59,1.11-1.19,1.33-2.05.69-2.62-1.22-4.37-3.78-4.04Z"/>
  <path class="st7" d="M120.57,112.8c-.11-.05-.84-1.67-1.15-2.09-4.35-5.8-9.61-10.6-15.75-14.47-.8-.5-5.33-2.7-5.4-3-.08-.38,3.65-2.77,4.32-3.35,1.82-1.58,3.56-3.66,4.89-5.66.69-1.04,3.92-7.63,4.35-7.67s4.09,2.27,4.73,2.7c9.42,6.43,20.71,19.91,9.28,30.08-.6.53-4.89,3.67-5.27,3.48Z"/>
  <path class="st0" d="M59.21,149.76c.06-.54-.08-1,.26-1.54.53-.82,7.43-1.44,7.59.75-.55,7.96.91,17.36.06,25.16-.04.41-.04,1.02-.37,1.31-.71.65-5.75.63-6.71.23-1.37-.58-.84-2.21-1.45-2.39-.26-.08-3.5,2.19-4.91,2.52-4.04.96-10.12.23-11.98-3.96-1.54-3.45-.85-8.01-.94-11.88-.04-1.95-.6-9.66-.12-10.9.61-1.58,5.89-1.27,7.26-.34.77,4.46-1.17,15.42.74,19.11.03.07.94,1.09,1,1.12.08.05.19-.24.21-.23,3.88,1.71,8.39,1.04,9.35-3.6.21-1.04.55-2.3,0-3.36v-.72c.41-.54.41-1.87,0-2.4v-.96c.4-.32.4-1.36,0-1.68,0-.16,0-.32,0-.48.86.27.26-1.21,0-1.68.02-.96-.04-1.93,0-2.88.65.33.65-1.53,0-1.2Z"/>
  <path class="st0" d="M90.85,168.96c1.21-4.46-5.6-4.28-8.49-5.06-4.8-1.29-9.85-2.89-9.22-8.96.93-8.87,16.39-9.36,21.9-5.19,1.21.91,4,4.89,2.7,6.18-.41.41-5.73.44-6.48.24-1.05-.27-1.05-1.73-2.29-2.5-4.63-2.89-11.29,1.46-5.98,3.82,4.64,2.06,14.06,1.17,15.89,7.61,3.86,13.57-23.6,14.6-25.84,4.52-.15-.67-.38-2.01.48-2.32.3-.11,5.67-.14,6.07-.04l-.24.48h.72c.03.07-.03.17,0,.24.21.52-.48,1.16.72.96.02.03.4.4.48.48.04.04-.02.39.24.59,2.02,1.55,8.56,1.85,9.35-1.07Z"/>
  <path class="st0" d="M116.97,147.84c.48.48,7-.79,8.08.07,1.18.94.83,6.17-.29,6.17h-8.03c-.11,2.53.17,5.04.25,7.57.07,2.1-1,6.53,1.79,7.54,1.71.62,5.67-.24,6.6.59.85.77,1.15,5.83-1.32,6.15-4,.53-11.12.22-13.9-3.15-3.44-4.17-.86-18.7-1.82-18.7h-5.15c-1.18,0-1.55-6.48.48-6.48h4.31c.07,0,.17.29.36.24v-6.84c0-2.21,8.63-2.55,8.63.24,0,.9-.23,6.37,0,6.6Z"/>
  <path class="st0" d="M162.52,168.96c.06-.03.22.61.96-.36.36-.46.89-2.37,1.01-2.47.56-.49,4.18.33,4.98-.53.23.01.49-.03.72,0-.21.86.83.33.96.48.1.12-.08,1.77,0,2.16.2.03.48-1.13.48-1.2.07.59-.11,1.12-.24,1.68-1.01-.11-.23.66-.24.72-.34,1.97-3.32,4.74-5.11,5.56-5.12,2.34-12.84,1.88-16.94-2.2-2.73-4.13-3.79-8.07-3.35-13.07.15-1.71.96-3.49.95-5.17,3.54-8.16,15.92-9.63,22.02-3.93,1.21,1.13,4.49,6.36,2.18,7.41-.4.18-6.36.24-6.79.08-.79-.29-.85-3.68-3.69-4.22-5.88-1.12-7.17,4.27-7.02,8.93.18,5.77,3.46,9.03,9.12,6.14Z"/>
  <path class="st0" d="M18.46,147.84l5.58.29c.57.18.8,1.56,1.13,2.35.08.19.12.31.24.48.09.13-.22.63.36.48.27-.07.05-.42.12-.48.07-.05.14-.16.24-.24,1.63-1.33,6.04-3.87,8.05-2.42.81.58.86,5.36.11,5.88-.39.27-2.72-.33-2.64.62-.08.01-.16-.01-.24,0-2.41-1.41-5.48,2.08-5.89,4.31-.86,4.68.41,11.22-.11,16.09-.97,1.08-5.94.91-7.43.24v-27.36c.13-.15.3-.18.48-.24Z"/>
  <path class="st7" d="M133.92,147.89c1.17-.28,6.7-.54,6.97,1.08l.06,25.15c-.04,2.73-7.86,2.39-8.34.42l-.06-24.91c.02-.81.58-1.55,1.38-1.74Z"/>
  <path class="st7" d="M45.54,72.24c1.81.43,3.69.4,5.51.84,1.22.3,3.22,1.45,4.07,1.56.22.03.49,0,.72,0,.77,1.95,5.1,3.88,1.97,5.69-6.03,3.48-14.78-.11-18.26-5.69l1.39-.94,4.12-1.46c.16-.02.32.01.48,0Z"/>
  <path class="st4" d="M128.24,78.96c0-.06-.28-.56-.27-1.08,0-.44.52-.35.52-.48,0-.4-.62-.95-.73-1.32-1.14-3.92-.1-9.75-5.51-10.8l-1.56-.48c11.65-8.32,10.8,7.43,7.55,14.16Z"/>
  <path class="st0" d="M183.05,139.27c.55.81.54,5.1-.33,5.7-1.01.7-6.73.8-7.48-.4-.6-.96-.6-5.19.6-5.83,1.03-.55,6.49-.53,7.21.53Z"/>
  <path class="st0" d="M139.5,139.68c-.39-.07-1.9-.16-2.16.24,1.21-.13,2.28.23,3.35.72.02.14,0,.33,0,.48,0,.49-.17,3.18-.24,3.48-.41,1.7-5.86,1.16-7.19.6l-.14-4.82c.24-.32,2.35-.42,2.9-.47.45-.04.97.29.84-.47.8-.02,1.95-.19,2.64.24Z"/>
  <path class="st7" d="M175.28,175.38c-.96-.94.09-23.79-.25-26.9.28-.79,8.43-1.84,8.11.91l-.06,25.15c-.16,2.08-7.16,1.47-7.8.84ZM176.35,148.13c-.99.25-1.07,1.08-1.14,1.98l.29,24.69c.31.78,6.27.99,6.94.05l.21-25.69c-.31-1.44-5.14-1.33-6.29-1.03Z"/>
  <path class="st7" d="M41.71,171.84c-.53-.33-.79-.99-.97-1.55-.71-2.23-.95-18.33-.63-21.1s7.76-1.72,8.15-.81c.69,5.34-.38,11.34.16,16.62.14,1.35.47,2.73,1.43,3.73-.01,0-.12.28-.21.23-.07-.04-.97-1.06-1-1.12-1.92-3.69.03-14.65-.74-19.11-1.37-.92-6.65-1.23-7.26.34-.48,1.24.08,8.95.12,10.9.08,3.88-.6,8.44.94,11.88Z"/>
  <path class="st0" d="M59.92,74.64c5.5.58,10.84,2.01,16.41,2.17,4.59.13,9.98-1.04,14.33-.19.26.05,1.56.36,1.38.9-4.78-1.09-7.72-.24-12.34-.23-6.64.01-13.46-.63-19.78-2.65Z"/>
  <path class="st7" d="M17.98,175.44v-27.36,27.36Z"/>
  <path class="st0" d="M146.7,70.56c.71-.13.58.03.85.46,3.66,5.77,5.41,13.51,5.14,20.31-.02.46.25.96-.48.83.34-8.43-1.49-14.38-5.51-21.6Z"/>
  <path class="st0" d="M49.38,112.08c-.53.64-1.31,1.46-1.68,1.92-3.88,7.32-6.16,12.76-8.15,20.88-.49-.88-.03-2.55.2-3.52,1.1-4.59,3.29-8.79,5.2-13.03.18-.4.04-1.07.11-1.21.01-.02.45.25.46.23.51-.85,1.11-2.53,1.73-3.3.11-.14.42-.01.44-.05.35-.66.61-2.1,1.68-1.92Z"/>
  <path class="st0" d="M169.47,124.8c-7.92,6.73-17.66,11.34-28.04,12.72-.39-.48-.11-.6.37-.71,7.21-1.59,13.06-2.84,19.69-6.57l7.98-5.44Z"/>
  <path class="st0" d="M139.26,27.12l-1.92,3.95c-2.44,6.84-.86,14.69,2.78,20.75,2.07,3.45,5.13,6.15,7.29,9.38-8.12-9.55-17.59-21.18-8.15-34.08Z"/>
  <path class="st0" d="M31.88,25.2l2.68,4.87c.27.86.79,1.66.62,2.62-.49,2.76-8.05,1.32-8.33,3.67-.11.89,1.03,1.54.48,2.27-.78-1.18-1.98-2.07-.36-3.37s7.12-.87,7.69-2.62c.61-1.84-2.91-5.07-2.78-7.45Z"/>
  <path class="st0" d="M131.83,138c-.13-.02-.38.07-.46-.02-.2-.22-1.02-4.88-1.29-5.8-.57-1.92-1.19-3.9-1.91-5.77-.35-.91-2.59-5.04-2.58-5.34,0-.07.94-.29,1.2-.36l5.03,17.28Z"/>
  <path class="st7" d="M149.09,172.8c-4.58-4.56-4.86-12.56-2.4-18.24,0,1.68-.8,3.46-.95,5.17-.44,5,.62,8.94,3.35,13.07Z"/>
  <path class="st7" d="M31.4,154.8c-2.37.35-4.29.84-5.11,3.41-1.04,3.28.34,15.63-.89,16.99.52-4.87-.75-11.41.11-16.09.41-2.22,3.48-5.72,5.89-4.31Z"/>
  <path class="st0" d="M152.21,92.64c.58,1,.21,3.71-.02,4.9-2.13,11.18-9.73,18.82-20.17,22.28-.52.17-1.37.56-1.87.17,13.48-4.27,21.22-12.85,22.05-27.36Z"/>
  <path class="st7" d="M34.28,154.8c-.1-.37-.88-.36-.96,0-.53.06-1.16-.07-1.68,0-.07-.95,2.25-.34,2.64-.62.75-.52.7-5.3-.11-5.88-2.01-1.45-6.42,1.09-8.05,2.42,1.44-2.31,5.52-4.03,8.09-2.94,1.49.63,1.51,6.58.06,7.02Z"/>
  <path class="st0" d="M147.65,61.44c.69-.18.6.16.88.44,5.06,5.09,14.1,16.9,13.26,24.28-1.39-10.2-7.83-17.28-14.14-24.72Z"/>
  <path class="st0" d="M86.29,84.48c-3.68,3.4-4.32,2.12-8.51,3.37-1.54.46.71.5.79.54,3.99,2.14,6.55,2.95,11.37,2.51.56-.05,1.19-.91,1.86.06-5.73,1.08-11.24.29-15.82-3.48,3.82-.05,7.18-.72,10.31-3Z"/>
  <path class="st0" d="M36.43,90l-10.79,17.52c3.75-5.76,6.61-12.02,10.79-17.52Z"/>
  <path class="st0" d="M140.7,60.96c-1.63-2.13-3.27-5-3.48-7.68,1.91,4.55,5.8,7.66,8.51,11.52.05.05.38.13.72.48-.89.2-.6-.32-.72-.48-1.06-1.07-4.02-4.52-4.72-5-1.24-.85-.63.3-.32,1.16Z"/>
  <path class="st0" d="M41.71,23.04c-.63,2.42-5.31.41-7.31.97l-2.52.95c.1-.44.93-1.44,1.32-1.44h5.03c1.1,0,2.32.69,3.48-.48Z"/>
  <path class="st7" d="M81.26,169.44c2.98,1.5,6.99,1.97,9.59-.48-.79,2.92-7.33,2.62-9.35,1.07-.27-.2-.2-.55-.24-.59Z"/>
  <path class="st0" d="M110.74,73.44c-1.21,1.13-3.03,2.11-4.04,3.28-1.87,2.17-2.12,6-4.35,7.76-.2.33-.3.45-.48.72-.57-.64.43-.68.48-.72,1.36-2.27,2.17-5.59,3.73-7.67.84-1.12,3.28-3.09,4.66-3.37Z"/>
  <path class="st7" d="M135.67,139.44h.48c.24-.01.48,0,.72,0,.13.76-.38.43-.84.47-.54.05-2.66.15-2.9.47l.14,4.82c1.33.56,6.78,1.1,7.19-.6.07-.3.23-2.99.24-3.48,1.82,5.23-2.39,5.3-6.35,4.8-1.29-.16-.81-.45-1.08-.72-.1-.1-.5.18-.66-.65-.35-1.73-.45-4.27,1.38-4.87.06-.02,1.07-.22,1.2-.24.15-.02.32.01.48,0Z"/>
  <path class="st7" d="M25.17,150.48c-.33-.79-.56-2.17-1.13-2.35l-5.58-.29c2-.68,8.01-1.07,6.71,2.64Z"/>
  <path class="st7" d="M169.47,165.6c-.81.86-4.42.04-4.98.53-.11.1-.65,2-1.01,2.47-.74.97-.91.33-.96.36l1.71-3.32c1.73.01,3.51-.14,5.24-.04Z"/>
  <path class="st0" d="M92.76,77.76s-.04-.32.3-.2c1.44.51,4.15,2.93,2.69,4.52-1.14,1.23-1.81-.19-1.98-.23-.83-.19-2.47-.39-3.27-.23-1.17.23-2.47,2.18-3.73,2.38.96-.86,2.76-2.85,4.02-3.07,1.59-.28,3.78,1.38,4.37,1.04,1.9-1.07-1.36-3.72-2.4-4.21Z"/>
  <path class="st2" d="M127.76,76.08c.11.37.73.92.73,1.32,0,.13-.51.04-.52.48,0,.52.28,1.03.27,1.08-.11,1.09-.35,2.68-.96,3.6.18-2.16.14-4.34.48-6.48Z"/>
  <path class="st7" d="M139.5,139.68c.69.12,1.07.22,1.2.96-1.07-.49-2.14-.85-3.35-.72.26-.4,1.77-.3,2.16-.24Z"/>
  <path class="st7" d="M171.62,167.04c0,.06-.27,1.23-.48,1.2-.08-.39.1-2.04,0-2.16-.13-.15-1.17.38-.96-.48,1.12.16,1.36.08,1.44,1.44Z"/>
  <path class="st7" d="M59.21,165.12v-3.36c.55,1.06.21,2.32,0,3.36Z"/>
  <path class="st0" d="M112.9,71.76c-.55.45-1.17,1.21-1.92,1.44.3-.3,1.37-2.08,1.92-1.44Z"/>
  <path class="st7" d="M59.21,161.04v-2.4c.41.53.41,1.86,0,2.4Z"/>
  <path class="st7" d="M59.21,153.84c.26.47.86,1.95,0,1.68,0-.56-.01-1.12,0-1.68Z"/>
  <path class="st7" d="M59.21,149.76c.65-.33.65,1.53,0,1.2.02-.4-.04-.81,0-1.2Z"/>
  <path class="st7" d="M59.21,157.68c0-.56,0-1.12,0-1.68.4.32.4,1.36,0,1.68Z"/>
  <path class="st7" d="M80.78,168.96c-1.2.2-.51-.44-.72-.96.32.26.49.63.72.96Z"/>
  <path class="st0" d="M135.19,139.44c-.13.02-1.14.22-1.2.24l1.2-.24Z"/>
  <path class="st7" d="M25.89,150.96c-.07.06.15.41-.12.48-.58.15-.27-.35-.36-.48h.48Z"/>
  <path class="st7" d="M171.38,168.72c-.02.08.02.17,0,.24l-.24.24v.24c.01-.06-.77-.83.24-.72Z"/>
  <path class="st7" d="M80.06,167.76h-.72s.24-.48.24-.48c.24.06.4.25.48.48Z"/>
  <path class="st0" d="M45.06,72.24l-4.12,1.46-1.39.94v-.24c.34-.06,1.3-.99,2-1.24,1.14-.4,2.31-.79,3.52-.92Z"/>
  <path class="st0" d="M34.28,154.8c-.22.07-.67-.03-.96,0,.08-.36.86-.37.96,0Z"/>
  <path class="st0" d="M136.15,139.44h-.48c.16-.01.32,0,.48,0Z"/>
  <path class="st0" d="M137.1,53.04c-.12.18-.41-.22-.23-.48.12-.18.41.22.23.48Z"/>
  <path class="st0" d="M171.14,169.2l.24-.24c-.03.1-.15.18-.24.24Z"/>
  <path class="st3" d="M95.4,41.28c.08.05.15.18.24.24,4.24,2.94,4.3,8.64,2.16,12.96-.07.09-.16.16-.24.24-1.97,2.15-3.83,2.68-6.71,2.16-.18-.09-1.51-1.05-1.68-1.2-2.79-3.32-2.96-7.56-1.44-11.52.15-.25.51-.69.72-.96.27-.35.66-.91.96-1.2.08-.08.16-.17.24-.24,2.01-.96,3.6-1.26,5.75-.48ZM90.54,43.01c-2.37.54-3.14,6.6.89,5.93,2.64-.44,2.62-6.74-.89-5.93Z"/>
  <path class="st3" d="M72.39,41.76c.06.05.85.83.96.96,2.9,3.57,3.01,11.95-1.85,13.87-7.86,3.11-10.89-9.43-6.3-14.11.08-.07.15-.18.24-.24,2.34-1.7,4.36-1.83,6.95-.48ZM67.05,43.01c-2.52.58-2.71,6.77,1.14,5.94,2.16-.46,2.8-6.85-1.14-5.94Z"/>
  <path class="st6" d="M101.87,65.28c.83-.92,1.31-1.33,1.96-2.48.18-.33,1.32-4.2,1.84-2.65.84,2.52-2.85,7.2-4.76,8.73-.34.27-1.31.97-1.68,1.2-5.37,2.72-11.42,2.99-16.54-.48-.11-.08-.48-.51-.72-.72-.63-.56-1.36-1.02-1.92-1.68-.34-.54-1.44-2.4-.36-2.41.19,0,2.31,1.97,3,2.41,5.83,4.7,13.84,3.61,18.94-1.68.08-.08.16-.16.24-.24Z"/>
  <path class="st0" d="M54.17,38.88c1.51.7,2.82,3.46,3.06,4.98.18,1.15-.19,6.77.06,7.02.06.06.72-.07,1.01.06,1.29.61,1.88,1.54,2.08,2.97.44,3.18.41,13.52.02,16.77-.14,1.13-.72,2.87-1.91,3.25.75-.54,1.32-1.84,1.44-2.76.41-3.12.42-14.65-.02-17.74-.26-1.8-1.36-2.35-3.09-2.3.56-4.06.68-9.33-2.64-12.24Z"/>
  <path class="st0" d="M40.03,39.84c-.64,1.39-1.45,2.65-1.65,4.23-.14,1.11.22,6.8-.03,7.05-.08.08-1.15-.05-1.44,0l-.24-.23h1.2v-6.61c0-1.22,1.35-3.47,2.16-4.44Z"/>
  <path class="st0" d="M99.24,70.08c-5.44,3.45-11.31,3.37-16.54-.48,5.11,3.47,11.16,3.2,16.54.48Z"/>
  <path class="st0" d="M101.63,65.52c-5.1,5.29-13.1,6.38-18.94,1.68,6.2,3.97,13.55,3.27,18.94-1.68Z"/>
  <path class="st0" d="M65.2,42.48c-4.59,4.68-1.56,17.21,6.3,14.11,4.86-1.92,4.75-10.3,1.85-13.87,7,7.8-2.2,19.97-8.47,12.45-2.81-3.36-3.13-9.69.32-12.69Z"/>
  <path class="st0" d="M95.64,41.52c.1-.48.55.07.7.19,3.59,3.06,4.41,9.04,1.46,12.77,2.14-4.32,2.09-10.02-2.16-12.96Z"/>
  <path class="st0" d="M35.24,53.28c-.37,3.5-.1,8.83,0,12.48v-12.48Z"/>
  <path class="st0" d="M89.17,55.68c-3.17-2.85-3.56-7.94-1.44-11.52-1.52,3.96-1.35,8.2,1.44,11.52Z"/>
  <path class="st0" d="M95.4,41.28c-2.15-.78-3.74-.48-5.75.48,1.84-1.53,3.73-1.73,5.75-.48Z"/>
  <path class="st0" d="M72.39,41.76c-2.59-1.35-4.61-1.22-6.95.48,2.06-2.28,4.58-2.26,6.95-.48Z"/>
  <path class="st0" d="M101.87,65.28c.13-.75.99-1.27,1.26-1.75.5-.87,1.64-5.26,2.84-3.87,1.38,1.61-2.92,8.61-5.06,9.22,1.91-1.53,5.6-6.21,4.76-8.73-.52-1.56-1.66,2.32-1.84,2.65-.65,1.16-1.13,1.57-1.96,2.48Z"/>
  <path class="st0" d="M97.56,54.72c-1.23,2.37-4.33,3.35-6.71,2.16,2.88.52,4.74,0,6.71-2.16Z"/>
  <path class="st0" d="M47.22,36.48c-2.58.14-5.18,1.24-6.95,3.12,1.26-1.96,4.62-3.82,6.95-3.12Z"/>
  <path class="st0" d="M53.93,38.64c-1.71-1.31-3.81-2.1-5.99-2.16,2-.76,4.62.67,5.99,2.16Z"/>
  <path class="st0" d="M88.45,43.2l-.23-.12c.38-.45.55-.97,1.19-1.08-.3.29-.69.85-.96,1.2Z"/>
  <path class="st0" d="M80.06,67.2c.56.66,1.28,1.12,1.92,1.68l-.12.24c-.79-.62-1.27-1.06-1.8-1.92Z"/>
  <path class="st0" d="M35.72,52.08s-.16.03,0-.24v.24Z"/>
  <path class="st0" d="M36.43,51.36l-.48.24c.55-.47.42-.21.48-.24Z"/>
  <path class="st6" d="M161.8,36c-.96-4.48,4.55-5.76,5.51-1.2.02.08,0,.16,0,.24,0,2.93-3.64,3.5-5.27,1.44-.04-.07-.21-.4-.24-.48Z"/>
  <path class="st0" d="M161.8,36c-1-2.57.63-4.75,3.46-4.3.82.13,2.86,2.13,2.05,3.1-.96-4.56-6.47-3.28-5.51,1.2Z"/>
  <path class="st0" d="M162.04,36.48c1.64,2.06,5.27,1.49,5.27-1.44.37,3.11-3.59,4.1-5.27,1.44Z"/>
  <path class="st7" d="M50.58,42c.77.39.78.45,1.2,1.2-.26.53.48,1.39.48,1.8v5.64h-8.87v-5.88c0-.12.82-2,.96-2.16,1.35-1.66,4.48-1.48,6.24-.6Z"/>
  <path class="st5" d="M46.93,56.69c2.55-.34,4.46,1.42,3.78,4.04-.23.86-1.24,1.46-1.33,2.05-.19,1.29,2.77,4.69-.41,5.33-7.12,1.42-2.97-3.14-3.18-5.33-.05-.55-.91-1.25-1.09-2.04-.42-1.81.18-3.78,2.24-4.05Z"/>
  <path class="st0" d="M50.58,42c-1.75-.88-4.89-1.07-6.24.6-.13.16-.96,2.05-.96,2.16v5.88h8.87v-5.64c0-.41-.74-1.27-.48-1.8.32.57.64,1.12.72,1.8.05.36.3,6.12,0,6.12h-9.59v-6.12c0-3.17,5.43-5.52,7.67-3Z"/>
  <path class="st0" d="M55.13,74.64c-.86-.11-2.85-1.26-4.07-1.56-1.82-.44-3.7-.41-5.51-.84,3.24-.21,7.01.34,9.59,2.4Z"/>
  <path class="st0" d="M176.35,148.13c1.15-.29,5.98-.4,6.29,1.03l-.21,25.69c-.67.93-6.63.72-6.94-.05l-.29-24.69c.07-.91.15-1.73,1.14-1.98Z"/>
  <path class="st5" d="M90.54,43.01c3.51-.81,3.53,5.5.89,5.93-4.03.67-3.26-5.39-.89-5.93Z"/>
  <path class="st5" d="M67.05,43.01c3.93-.9,3.3,5.48,1.14,5.94-3.84.83-3.65-5.36-1.14-5.94Z"/>
</svg>